<svg fill="none" height="21" viewBox="0 0 20 21" width="20" xmlns="http://www.w3.org/2000/svg">
    <path
        d="M10 7.52148V10.5215M10 10.5215V13.5215M10 10.5215H13M10 10.5215H7M19 10.5215C19 11.7034 18.7672 12.8737 18.3149 13.9656C17.8626 15.0576 17.1997 16.0497 16.364 16.8854C15.5282 17.7212 14.5361 18.3841 13.4442 18.8364C12.3522 19.2887 11.1819 19.5215 10 19.5215C8.8181 19.5215 7.64778 19.2887 6.55585 18.8364C5.46392 18.3841 4.47177 17.7212 3.63604 16.8854C2.80031 16.0497 2.13738 15.0576 1.68508 13.9656C1.23279 12.8737 1 11.7034 1 10.5215C1 8.13454 1.94821 5.84535 3.63604 4.15752C5.32387 2.4697 7.61305 1.52148 10 1.52148C12.3869 1.52148 14.6761 2.4697 16.364 4.15752C18.0518 5.84535 19 8.13454 19 10.5215Z"
        stroke="white" stroke-linecap="round" stroke-linejoin="round" stroke-width="2" />
</svg>
