<svg fill="none" height="21" viewBox="0 0 20 21" width="20" xmlns="http://www.w3.org/2000/svg">
    <path
        d="M1 10.5215L3 8.52148M3 8.52148L10 1.52148L17 8.52148M3 8.52148V18.5215C3 18.7867 3.10536 19.0411 3.29289 19.2286C3.48043 19.4161 3.73478 19.5215 4 19.5215H7M17 8.52148L19 10.5215M17 8.52148V18.5215C17 18.7867 16.8946 19.0411 16.7071 19.2286C16.5196 19.4161 16.2652 19.5215 16 19.5215H13M7 19.5215C7.26522 19.5215 7.51957 19.4161 7.70711 19.2286C7.89464 19.0411 8 18.7867 8 18.5215V14.5215C8 14.2563 8.10536 14.0019 8.29289 13.8144C8.48043 13.6268 8.73478 13.5215 9 13.5215H11C11.2652 13.5215 11.5196 13.6268 11.7071 13.8144C11.8946 14.0019 12 14.2563 12 14.5215V18.5215C12 18.7867 12.1054 19.0411 12.2929 19.2286C12.4804 19.4161 12.7348 19.5215 13 19.5215M7 19.5215H13"
        stroke="#00A2FF" stroke-linecap="round" stroke-linejoin="round" stroke-width="2" />
</svg>
