<svg fill="none" height="21" viewBox="0 0 16 21" width="16" xmlns="http://www.w3.org/2000/svg">
    <path
        d="M5 3.52148H3C2.46957 3.52148 1.96086 3.7322 1.58579 4.10727C1.21071 4.48234 1 4.99105 1 5.52148V17.5215C1 18.0519 1.21071 18.5606 1.58579 18.9357C1.96086 19.3108 2.46957 19.5215 3 19.5215H13C13.5304 19.5215 14.0391 19.3108 14.4142 18.9357C14.7893 18.5606 15 18.0519 15 17.5215V5.52148C15 4.99105 14.7893 4.48234 14.4142 4.10727C14.0391 3.7322 13.5304 3.52148 13 3.52148H11M5 3.52148C5 4.05192 5.21071 4.56063 5.58579 4.9357C5.96086 5.31077 6.46957 5.52148 7 5.52148H9C9.53043 5.52148 10.0391 5.31077 10.4142 4.9357C10.7893 4.56063 11 4.05192 11 3.52148M5 3.52148C5 2.99105 5.21071 2.48234 5.58579 2.10727C5.96086 1.7322 6.46957 1.52148 7 1.52148H9C9.53043 1.52148 10.0391 1.7322 10.4142 2.10727C10.7893 2.48234 11 2.99105 11 3.52148M8 10.5215H11M8 14.5215H11M5 10.5215H5.01M5 14.5215H5.01"
        stroke="white" stroke-linecap="round" stroke-linejoin="round" stroke-width="2" />
</svg>
