<svg fill="none" height="19" viewBox="0 0 20 19" width="20" xmlns="http://www.w3.org/2000/svg">
    <path
        d="M9 13.5215L5 9.52148M5 9.52148L9 5.52148M5 9.52148H19M14 13.5215V14.5215C14 15.3171 13.6839 16.0802 13.1213 16.6428C12.5587 17.2054 11.7956 17.5215 11 17.5215H4C3.20435 17.5215 2.44129 17.2054 1.87868 16.6428C1.31607 16.0802 1 15.3171 1 14.5215V4.52148C1 3.72583 1.31607 2.96277 1.87868 2.40016C2.44129 1.83755 3.20435 1.52148 4 1.52148H11C11.7956 1.52148 12.5587 1.83755 13.1213 2.40016C13.6839 2.96277 14 3.72583 14 4.52148V5.52148"
        stroke="white" stroke-linecap="round" stroke-linejoin="round" stroke-width="2" />
</svg>
